<?xml version="1.0" encoding="UTF-8"?>
<!-- Created with Inkscape (http://www.inkscape.org/) -->
<svg width="221.49" height="25.026" version="1.1" viewBox="0 0 221.49 25.026" xmlns="http://www.w3.org/2000/svg">
 <text x="103.86717" y="-38.024357" font-family="Raleway" font-size="22.578px" stroke-width=".26458" style="line-height:1.25" xml:space="preserve"><tspan stroke-width=".26458"/></text>
 <g transform="matrix(.51804 0 0 .51804 330.2 -119.77)" fill="#294cd9">
  <g stroke-width=".76099">
   <path d="m-545.07 232.64c3.3158-0.78462 6.2952-0.82765 9.0913 0l16.949 46.106c-2.8694 1.0834-7.0092 0.91538-10.236 0.1047l-3.5091-11.472c-4.2853-1.5548-7.962-2.4282-16.153-0.0736l-3.9346 11.441c-2.9927 0.85946-6.0495 1.0394-9.2212 0zm10.09 28.001-5.5448-18.715-6.1541 18.585c6.3179-1.4812 8.4248-1.0145 11.665 0z"/>
   <path d="m-505.38 251.61 0.38049 27.138c-2.8116 0.83663-5.7907 1.062-8.9614 0v-46.106c4.1577-0.96876 5.117-0.17085 7.1432 0l23.677 33.454 0.1556-33.389c2.6878-0.41164 5.2921-0.93795 8.9614 0v46.041c-3.0269 0.99407-6.0898 0.90761-9.1801 3e-5z"/>
   <path d="m-466.75 269.33c0.56278 0.38964 1.5585 0.86585 2.9872 1.4286 1.4286 0.51953 3.117 0.77927 5.0652 0.77927 1.6884 0 3.0737-0.28129 4.156-0.84418 1.0823-0.6061 1.9048-1.4936 2.4676-2.6625 0.6061-1.1689 0.99573-2.6841 1.1689-4.5457 0.21629-1.8615 0.32466-4.0911 0.32466-6.6886v-24.157c2.532-0.47831 4.9553-1.071 8.9614 0v23.443c0 3.4634-0.19472 6.6237-0.58444 9.4809-0.38963 2.8572-1.1472 5.3249-2.2728 7.4029s-2.8356 3.6798-5.1301 4.8054c-2.2512 1.1256-5.26 1.6884-9.0264 1.6884-2.078 0-3.9396-0.23815-5.5846-0.71433-1.6451-0.47621-3.1603-1.1905-4.5456-2.1429 0.0408-3.1957 0.6736-5.639 2.0131-7.2731z"/>
  </g>
  <path d="m-413.3 279.46q-5.1494 0-9.3745-1.9805-4.1591-1.9805-7.1959-5.3474-2.9708-3.4329-4.6212-7.6581-1.6504-4.2911-1.6504-8.7803 0-4.6873 1.7164-8.9124 1.7825-4.2911 4.8193-7.592 3.1028-3.3669 7.262-5.2814 4.2251-1.9805 9.2425-1.9805 5.0834 0 9.2425 2.0466 4.2251 2.0465 7.1959 5.4795 2.9708 3.4329 4.6212 7.6581 1.6504 4.2251 1.6504 8.7143 0 4.6212-1.7164 8.9124-1.7165 4.2251-4.8193 7.592-3.0368 3.3009-7.262 5.2154-4.1591 1.9145-9.1104 1.9145zm-13.6-23.766q0 3.0368 0.92426 5.8755t2.6407 5.0834q1.7824 2.1786 4.2911 3.4989 2.5747 1.2543 5.8096 1.2543 3.3009 0 5.8756-1.3203 2.5747-1.3864 4.2911-3.631 1.7165-2.3106 2.5747-5.0834 0.92423-2.8388 0.92423-5.6775 0-3.0368-0.99026-5.8096-0.92426-2.8388-2.7067-5.0173-1.7164-2.2446-4.2912-3.499-2.5087-1.3203-5.6775-1.3203-3.3669 0-5.9416 1.3864-2.5087 1.3203-4.2251 3.5649t-2.6407 5.0174q-0.85822 2.7727-0.85822 5.6775z" stroke-width=".77364"/>
  <g stroke-width=".76099">
   <path d="m-382.59 255.36c0-2.814 0.47622-5.563 1.4286-8.2471 0.99573-2.7274 2.4244-5.195 4.2859-7.4029 1.8616-2.2512 4.156-4.0261 6.8834-5.3249 2.7274-1.342 5.8228-2.0131 9.2861-2.0131 4.1127 0 7.6194 0.95242 10.52 2.8573 2.9439 1.8616 5.1084 4.2642 6.4938 7.2081-1.141 1.3721-2.2936 1.7836-3.5716 2.2079-0.99573-2.0347-2.2512-3.6365-3.7664-4.8054-1.5152-1.2122-3.1387-2.078-4.8703-2.5975-1.6884-0.5195-3.3768-0.77928-5.0652-0.77928-2.7707 0-5.2167 0.56282-7.338 1.6884-2.1213 1.0823-3.9179 2.5542-5.3898 4.4158-1.4286 1.8183-2.5109 3.8746-3.2469 6.1691-0.73595 2.2512-1.1039 4.5456-1.1039 6.8834 0 2.5542 0.43292 5.0002 1.2988 7.338 0.86582 2.3378 2.078 4.4158 3.6365 6.234 1.5585 1.775 3.3768 3.2036 5.4548 4.2859 2.1213 1.039 4.4158 1.5585 6.8834 1.5585 1.7317 0 3.5067-0.30304 5.3249-0.90913 1.8183-0.60607 3.5067-1.5369 5.0652-2.7923 1.6018-1.2555 2.8789-2.8789 3.8313-4.8704 1.2617 0.18466 2.3089 0.39884 3.7664 1.9482-0.95242 2.2944-2.4243 4.2426-4.4158 5.8444-1.9914 1.6018-4.2209 2.814-6.6886 3.6365-2.4243 0.82256-4.8054 1.2338-7.1432 1.2338-3.1603 0-6.0608-0.67102-8.7016-2.0131-2.6408-1.3853-4.9353-3.2036-6.8834-5.4548-1.9048-2.2945-3.3768-4.8487-4.4158-7.6627-1.039-2.8573-1.5585-5.7362-1.5585-8.6367z"/>
   <path d="m-316.94 279.06q-4.8704 0-8.8316-1.9481t-6.8184-5.26q-2.8573-3.3768-4.4158-7.5328-1.5585-4.221-1.5585-8.6367 0-4.6106 1.6234-8.7666 1.6235-4.221 4.5457-7.4679 2.9871-3.3118 6.9483-5.195 3.9612-1.9482 8.5718-1.9482 4.8704 0 8.8316 2.0131t6.7536 5.3898q2.8573 3.3768 4.4158 7.5328t1.5585 8.5068q0 4.6106-1.6234 8.8315-1.6235 4.156-4.5457 7.4678-2.9222 3.2469-6.8834 5.1301t-8.5718 1.8832zm-17.079-23.378q0 3.7664 1.2338 7.2731 1.2338 3.4417 3.5066 6.1691 2.2728 2.6624 5.3898 4.2859 3.1819 1.5585 6.9484 1.5585 3.9612 0 7.0782-1.6234 3.182-1.6884 5.3898-4.4158 2.2728-2.7923 3.4417-6.234t1.1689-7.0133q0-3.7664-1.2338-7.2081t-3.5716-6.1691q-2.2728-2.7274-5.3898-4.2859t-6.8834-1.5585q-3.8963 0-7.0782 1.6235-3.117 1.6234-5.3898 4.4158-2.2079 2.7274-3.4417 6.1691-1.1689 3.4417-1.1689 7.0133z"/>
   <path d="m-286.64 279.06-0.0952-46.7h15.818c4.892 0 8.7933 1.3081 12.04 3.3861 3.2902 2.0347 5.7578 4.8054 7.4029 8.312 1.6451 3.4634 2.4676 7.3163 2.4676 11.559 0 4.6755-0.90914 8.745-2.7274 12.208-1.775 3.4634-4.2341 6.4722-7.5676 8.377-3.2902 1.9048-7.1389 2.8067-11.641 2.8179zm33.088-23.443c0-3.6798-0.69267-6.9484-2.078-9.8056-1.342-2.8573-3.3118-5.0868-5.9093-6.6886-2.5975-1.6451-5.7795-2.4676-9.5459-2.4676h-11.104c0.11965 9.6944 0.23125 19.587 0 38.054h11.104c3.8097 0 7.0133-0.84419 9.6108-2.5326 2.5975-1.6884 4.5673-3.9612 5.9093-6.8185 1.342-2.9006 2.0131-6.1475 2.0131-9.7407z"/>
   <path d="m-210.29 274.79c0.53523 1.1706 0.63515 2.6541 0 4.3508l-30.022-0.0713v-46.854h30.022c0.51069 1.107 0.65488 2.7587 0 4.4022l-25.476 0.0475v16.624h21.481c0.44817 1.4595 0.43359 2.7306 0 3.8313 0 0-19.037-0.0737-21.315-0.0661l-0.0331 1.9182v15.958z"/>
  </g>
  <g transform="matrix(.13703 0 0 .13703 -501.28 145.65)">
   <path d="m-678.21 627.37-231.26 342.34c-26.755 6.0614-55.088 5.1153-83.903 2.0247l231.26-342.34c27.037-6.4002 55.19-6.3718 83.903-2.0247z" stroke-width="5.5566"/>
   <path d="m-481.96 868.18c1.7661 10.201-185.14 105.98-185.14 105.98-4.1599-25.965-4.347-51.874 1.0792-77.706l83.596-47.903-84.675-53.245c-4.3347-29.103-4.1479-51.537 1.0792-73.798 0 0 185.24 107.33 184.51 113.68 3.2197 10.55 2.5354 21.257-0.45814 32.992z" stroke-width="5.0877"/>
  </g>
 </g>
</svg>
